<?xml version="1.0" encoding="UTF-8"?>
<svg id="Ebene_3" data-name="Ebene 3" xmlns="http://www.w3.org/2000/svg" viewBox="0 0 632.8 88">
  <defs>
    <style>
      .cls-1 {
        fill: #1e120f;
      }
    </style>
  </defs>
  <g id="Ebene_1" data-name="Ebene 1">
    <g>
      <path class="cls-1" d="M133.96,0c-16.54,0-28.17,7.92-30.87,23.17-.03.19-.3.2-.34,0-3.35-14.97-12.46-23.18-31.47-23.18-14.61,0-26.72,7.75-31.68,27.75L26.89,3.23H0v81.54h50.38v-38.31c0-2.46,1.8-3.38,3.12-3.38s3.12.92,3.12,3.38v38.31h49.38v-38.31c0-2.46,1.8-3.38,3.12-3.38s3.12.92,3.12,3.38v38.31h50.38v-43.15c0-22.46-8.76-41.61-28.68-41.61Z"/>
      <path class="cls-1" d="M362.68,0c-21.5,0-31.54,10.98-34.1,28.87-.06.4-.58.52-.79.17l-15.57-25.81h-25.14v81.54h52.35v-38.31c0-2.46,1.8-3.38,3.14-3.38s3.15.92,3.15,3.38v38.31h52.22v-47.07c0-16.97-10.19-37.69-35.25-37.69Z"/>
      <path class="cls-1" d="M480.17,0c-21.5,0-31.54,10.98-34.1,28.87-.06.4-.58.52-.79.17l-15.57-25.81h-25.14v81.54h52.35v-38.31c0-2.46,1.8-3.38,3.14-3.38s3.15.92,3.15,3.38v38.31h52.22v-47.07c0-16.97-10.19-37.69-35.25-37.69Z"/>
      <path class="cls-1" d="M226.74,0c-31.66,0-55.89,10.22-58.55,33.91l48.49.6c.53-1.69,3.53-4.12,7.13-4.12,4.26,0,5.48,3.17,5.83,5.04.09.47-.25.92-.73.97l-30.62,3.44c-19.19,1.85-31.12,11.39-31.12,25.39s7.2,22.77,30.52,22.77c18.63,0,34-6.44,38.6-22.9l9.18,19.67h34.99v-45.61c0-18.77-11.73-39.15-53.71-39.15ZM228.28,54.71c-1.9,2.68-7.09,5.79-10.29,2.77-.46-.43-1.58-2.58-.72-4.37.96-1.99,3.11-3.5,4.78-4.45,2.92-1.65,6.83-2.94,8.04-1.73,1.21,1.21.09,5.1-1.81,7.78Z"/>
      <path class="cls-1" d="M579.08,0c-31.66,0-55.89,10.22-58.55,33.91l48.49.6c.53-1.69,3.53-4.12,7.13-4.12,4.26,0,5.48,3.17,5.83,5.04.09.47-.25.92-.73.97l-30.62,3.44c-19.19,1.85-31.12,11.39-31.12,25.39s7.2,22.77,30.52,22.77c18.63,0,34-6.44,38.6-22.9l9.18,19.67h34.99v-45.61c0-18.77-11.73-39.15-53.71-39.15ZM580.63,54.71c-1.9,2.68-7.09,5.79-10.29,2.77-.46-.43-1.58-2.58-.72-4.37.96-1.99,3.11-3.5,4.78-4.45,2.92-1.65,6.83-2.94,8.04-1.73,1.21,1.21.09,5.1-1.82,7.78Z"/>
    </g>
  </g>
</svg>