<?xml version="1.0" encoding="UTF-8"?>
<svg xmlns="http://www.w3.org/2000/svg" viewBox="0 0 162.62 84.77">
  <style>
    :root { --c: #1e120f; }
    @media (prefers-color-scheme: dark) { :root { --c: #ffffff; } }
    .letter { fill: var(--c); }
  </style>
  <path class="letter" d="M133.96,0c-16.54,0-28.17,7.92-30.87,23.17-.03.19-.3.2-.34,0-3.35-14.97-12.46-23.18-31.47-23.18-14.61,0-26.72,7.75-31.68,27.75L26.89,3.23H0v81.54h50.38v-38.31c0-2.46,1.8-3.38,3.12-3.38s3.12.92,3.12,3.38v38.31h49.38v-38.31c0-2.46,1.8-3.38,3.12-3.38s3.12.92,3.12,3.38v38.31h50.38v-43.15c0-22.46-8.76-41.61-28.68-41.61Z"/>
</svg>
